<?xml version="1.0" encoding="utf-8"?>
<!-- Generator: Adobe Illustrator 23.0.3, SVG Export Plug-In . SVG Version: 6.00 Build 0)  -->
<svg version="1.1" id="Layer_1" xmlns="http://www.w3.org/2000/svg" xmlns:xlink="http://www.w3.org/1999/xlink" x="0px" y="0px"
	 width="290px" height="74px" viewBox="0 0 290 74" style="enable-background:new 0 0 290 74;" xml:space="preserve">
<style type="text/css">
	.st0{fill:#FFFFFF;}
</style>
<g>
	<g>
		<g>
			<g>
				<polygon class="st0" points="28.7,10.7 26.7,8 24.7,5.4 26.7,6.7 28.7,8 30.7,6.7 32.7,5.4 30.7,8 				"/>
				<polygon class="st0" points="17.1,22.2 20,24.1 22.9,26.1 25.9,24.1 28.8,22.2 25.9,26.1 22.9,30 20,26.1 				"/>
				<polygon class="st0" points="11.5,38.9 15.3,41.5 19.2,44.1 23.1,41.5 27,38.9 23.1,44.1 19.2,49.3 15.3,44.1 				"/>
				<polygon class="st0" points="3.8,55.7 8.6,59 13.5,62.2 18.3,59 23.1,55.7 18.3,62.2 13.5,68.6 8.6,62.2 				"/>
				<polygon class="st0" points="70.3,10.7 68.3,8 66.3,5.4 68.3,6.7 70.3,8 72.3,6.7 74.2,5.4 72.3,8 				"/>
				<polygon class="st0" points="70.2,22.2 73.1,24.1 76,26.1 79,24.1 81.9,22.2 79,26.1 76,30 73.1,26.1 				"/>
				<polygon class="st0" points="72,38.9 75.9,41.5 79.7,44.1 83.6,41.5 87.5,38.9 83.6,44.1 79.7,49.3 75.9,44.1 				"/>
				<polygon class="st0" points="44.3,22.2 47.3,24.1 50.2,26.1 53.1,24.1 56.1,22.2 53.1,26.1 50.2,30 47.3,26.1 				"/>
				<polygon class="st0" points="42.4,38.9 46.3,41.5 50.2,44.1 54.1,41.5 58,38.9 54.1,44.1 50.2,49.3 46.3,44.1 				"/>
				<polygon class="st0" points="75.8,55.7 80.7,59 85.5,62.2 90.3,59 95.1,55.7 90.3,62.2 85.5,68.6 80.7,62.2 				"/>
			</g>
		</g>
	</g>
	<g>
		<path class="st0" d="M109.6,14c0-3,0-3.6,0-4.3c0-0.7-0.2-1-0.9-1.1c-0.2,0-0.5-0.1-0.8-0.1c-0.2,0-0.3,0-0.3-0.2
			c0-0.1,0.1-0.2,0.4-0.2c1.1,0,2.3,0.1,2.9,0.1c0.5,0,1.7-0.1,2.5-0.1c0.3,0,0.4,0,0.4,0.2c0,0.1-0.1,0.2-0.3,0.2
			c-0.2,0-0.3,0-0.6,0.1c-0.5,0.1-0.7,0.4-0.7,1.1c0,0.6,0,1.2,0,4.3v2.8c0,2.9,0.6,4.1,1.6,4.9c0.9,0.7,1.8,0.8,2.5,0.8
			c0.9,0,2-0.3,2.8-1.1c1.1-1.1,1.2-2.9,1.2-5V14c0-3,0-3.6,0-4.3c0-0.7-0.2-1-0.9-1.1c-0.2,0-0.5-0.1-0.7-0.1c-0.2,0-0.3,0-0.3-0.2
			c0-0.1,0.1-0.2,0.4-0.2c1,0,2.3,0.1,2.3,0.1c0.2,0,1.5-0.1,2.3-0.1c0.3,0,0.4,0,0.4,0.2c0,0.1-0.1,0.2-0.4,0.2
			c-0.2,0-0.3,0-0.6,0.1C122.2,8.7,122,9,122,9.7c0,0.6,0,1.2,0,4.3v2.1c0,2.2-0.2,4.6-1.9,6c-1.4,1.2-2.9,1.4-4.2,1.4
			c-1.1,0-3-0.1-4.5-1.4c-1-0.9-1.8-2.4-1.8-5.3L109.6,14L109.6,14z"/>
		<path class="st0" d="M128.7,20.6c0,1.6,0.3,2.1,0.7,2.2c0.3,0.1,0.7,0.1,1,0.1c0.2,0,0.3,0,0.3,0.2c0,0.2-0.2,0.2-0.5,0.2
			c-1.3,0-2.1-0.1-2.5-0.1c-0.2,0-1.1,0.1-2.2,0.1c-0.3,0-0.4,0-0.4-0.2c0-0.1,0.1-0.2,0.3-0.2c0.3,0,0.6,0,0.9-0.1
			c0.5-0.2,0.6-0.7,0.6-2.5l0.2-11.9c0-0.4,0.1-0.7,0.3-0.7c0.2,0,0.4,0.3,0.7,0.6c0.2,0.3,3.3,3.5,6.2,6.4c1.4,1.4,4.1,4.3,4.4,4.6
			h0.1l-0.2-9c0-1.2-0.2-1.6-0.7-1.8c-0.3-0.1-0.8-0.1-1.1-0.1c-0.2,0-0.3-0.1-0.3-0.2c0-0.2,0.2-0.2,0.5-0.2c1,0,2,0.1,2.4,0.1
			c0.2,0,1-0.1,2-0.1c0.3,0,0.5,0,0.5,0.2c0,0.1-0.1,0.2-0.4,0.2c-0.2,0-0.4,0-0.6,0.1c-0.6,0.2-0.7,0.6-0.7,1.7l-0.2,12.7
			c0,0.4-0.1,0.6-0.3,0.6c-0.2,0-0.5-0.2-0.7-0.4c-1.3-1.2-3.8-3.8-5.9-5.9c-2.2-2.2-4.4-4.7-4.8-5.1h-0.1L128.7,20.6z"/>
		<path class="st0" d="M146.6,14c0-3,0-3.6,0-4.3c0-0.7-0.2-1-0.7-1.1c-0.2-0.1-0.5-0.1-0.7-0.1c-0.2,0-0.3,0-0.3-0.2
			c0-0.1,0.2-0.2,0.5-0.2c0.8,0,2,0.1,2.6,0.1c0.5,0,1.7-0.1,2.5-0.1c0.3,0,0.4,0,0.4,0.2c0,0.2-0.1,0.2-0.3,0.2
			c-0.2,0-0.4,0-0.6,0.1c-0.5,0.1-0.7,0.4-0.7,1.1c0,0.6,0,1.2,0,4.3v3.5c0,1.9,0,3.5,0.1,4.4c0.1,0.5,0.2,0.9,0.8,1
			c0.3,0,0.7,0.1,1,0.1c0.2,0,0.3,0.1,0.3,0.2c0,0.1-0.2,0.2-0.4,0.2c-1.3,0-2.6-0.1-3.1-0.1c-0.5,0-1.7,0.1-2.5,0.1
			c-0.3,0-0.4-0.1-0.4-0.2c0-0.1,0.1-0.2,0.3-0.2c0.3,0,0.5,0,0.7-0.1c0.4-0.1,0.5-0.4,0.6-1c0.1-0.8,0.1-2.4,0.1-4.4L146.6,14
			L146.6,14z"/>
		<path class="st0" d="M153.8,10.1c-0.5-1.1-0.8-1.3-1.5-1.5c-0.3-0.1-0.6-0.1-0.8-0.1c-0.2,0-0.2-0.1-0.2-0.2
			c0-0.2,0.2-0.2,0.5-0.2c1.1,0,2.2,0.1,2.9,0.1c0.5,0,1.5-0.1,2.5-0.1c0.2,0,0.5,0,0.5,0.2c0,0.1-0.1,0.2-0.3,0.2
			c-0.3,0-0.6,0-0.8,0.1c-0.1,0.1-0.2,0.2-0.2,0.4c0,0.3,0.2,0.8,0.5,1.5l3.4,9.1h0.1c0.9-2.2,3.5-8.7,4-10c0.1-0.3,0.2-0.6,0.2-0.7
			c0-0.2-0.1-0.3-0.3-0.4c-0.2-0.1-0.5-0.1-0.8-0.1c-0.2,0-0.3,0-0.3-0.2c0-0.2,0.2-0.2,0.6-0.2c1,0,1.8,0.1,2.1,0.1
			c0.3,0,1.3-0.1,1.9-0.1c0.3,0,0.4,0,0.4,0.2c0,0.1-0.1,0.2-0.3,0.2s-0.6,0-1,0.2c-0.3,0.2-0.6,0.5-1.1,1.8c-0.8,1.9-1.3,3-2.4,5.4
			c-1.3,2.9-2.2,5.1-2.7,6.1c-0.5,1.2-0.6,1.5-0.9,1.5c-0.3,0-0.4-0.3-0.8-1.2L153.8,10.1z"/>
		<path class="st0" d="M170.2,14c0-3,0-3.6,0-4.3c0-0.7-0.2-1-0.9-1.1c-0.2,0-0.5-0.1-0.8-0.1c-0.2,0-0.3,0-0.3-0.2
			c0-0.1,0.1-0.2,0.4-0.2c0.5,0,1.1,0,1.6,0c0.5,0,1,0,1.3,0c0.6,0,4.6,0,5,0c0.4,0,0.7-0.1,0.9-0.1c0.1,0,0.2-0.1,0.3-0.1
			c0.1,0,0.1,0.1,0.1,0.2c0,0.1-0.1,0.4-0.2,1.3c0,0.2-0.1,1.1-0.1,1.3c0,0.1-0.1,0.2-0.2,0.2c-0.1,0-0.2-0.1-0.2-0.3
			c0-0.1,0-0.5-0.1-0.7c-0.1-0.4-0.3-0.6-1.3-0.7c-0.3,0-2.5-0.1-2.9-0.1c-0.1,0-0.1,0.1-0.1,0.2v5.1c0,0.1,0,0.2,0.1,0.2
			c0.4,0,2.8,0,3.2,0c0.5,0,0.8-0.1,1-0.3c0.1-0.2,0.2-0.3,0.3-0.3c0.1,0,0.1,0,0.1,0.2c0,0.1-0.1,0.4-0.2,1.5
			c0,0.4-0.1,1.2-0.1,1.3c0,0.2,0,0.4-0.2,0.4c-0.1,0-0.2-0.1-0.2-0.2c0-0.2,0-0.5-0.1-0.7c-0.1-0.4-0.4-0.7-1.1-0.8
			c-0.4,0-2.4-0.1-2.8-0.1c-0.1,0-0.1,0.1-0.1,0.2v1.6c0,0.7,0,2.5,0,3.1c0,1.4,0.4,1.7,2.4,1.7c0.5,0,1.4,0,1.9-0.2
			c0.5-0.2,0.8-0.7,0.9-1.5c0-0.2,0.1-0.3,0.2-0.3c0.2,0,0.2,0.2,0.2,0.4c0,0.5-0.2,1.8-0.3,2.2c-0.1,0.5-0.3,0.5-1.1,0.5
			c-1.5,0-2.6,0-3.5-0.1c-0.9,0-1.5-0.1-2.1-0.1c-0.2,0-0.7,0-1.1,0c-0.5,0-1,0-1.4,0c-0.3,0-0.4-0.1-0.4-0.2c0-0.1,0.1-0.2,0.3-0.2
			c0.3,0,0.5,0,0.7-0.1c0.4-0.1,0.5-0.5,0.6-1.1c0.1-0.8,0.1-2.4,0.1-4.3L170.2,14C170.2,14,170.2,14,170.2,14z"/>
		<path class="st0" d="M182.9,14c0-3,0-3.6,0-4.3c0-0.7-0.2-1-0.9-1.1c-0.2,0-0.5-0.1-0.8-0.1c-0.2,0-0.3,0-0.3-0.2
			c0-0.1,0.1-0.2,0.4-0.2c1.1,0,2.3,0.1,2.7,0.1c0.7,0,2.2-0.1,2.8-0.1c1.3,0,2.6,0.1,3.7,0.9c0.6,0.4,1.4,1.4,1.4,2.7
			c0,1.5-0.6,2.8-2.6,4.5c1.8,2.2,3.2,4,4.4,5.3c1.1,1.2,1.9,1.3,2.2,1.4c0.2,0,0.4,0.1,0.6,0.1c0.2,0,0.2,0.1,0.2,0.2
			c0,0.2-0.1,0.2-0.4,0.2h-1.9c-1.1,0-1.6-0.1-2.1-0.4c-0.9-0.5-1.6-1.4-2.8-2.9c-0.8-1.1-1.7-2.5-2-2.8c-0.1-0.1-0.2-0.1-0.4-0.1
			l-1.7,0c-0.1,0-0.2,0-0.2,0.2v0.3c0,1.9,0,3.4,0.1,4.3c0.1,0.6,0.2,1,0.8,1.1c0.3,0,0.7,0.1,1,0.1c0.2,0,0.2,0.1,0.2,0.2
			c0,0.1-0.1,0.2-0.4,0.2c-1.2,0-2.6-0.1-2.9-0.1c-0.4,0-1.6,0.1-2.4,0.1c-0.3,0-0.4-0.1-0.4-0.2c0-0.1,0.1-0.2,0.3-0.2
			c0.3,0,0.5,0,0.7-0.1c0.4-0.1,0.5-0.5,0.6-1.1c0.1-0.8,0.1-2.4,0.1-4.3L182.9,14L182.9,14z M185.3,15.6c0,0.2,0,0.3,0.2,0.4
			c0.4,0.1,1,0.2,1.5,0.2c0.8,0,1.1-0.1,1.4-0.3c0.6-0.4,1.2-1.4,1.2-3c0-2.9-1.9-3.7-3.1-3.7c-0.5,0-0.9,0-1.1,0.1
			c-0.1,0-0.2,0.1-0.2,0.3L185.3,15.6L185.3,15.6z"/>
		<path class="st0" d="M204.1,22.2c2,0,2.8-0.5,3.2-1.1c0.2-0.3,0.3-0.7,0.4-1c0-0.2,0.1-0.3,0.2-0.3c0.2,0,0.2,0.1,0.2,0.6
			c0,0.6-0.3,1.9-0.4,2.4c-0.1,0.4-0.2,0.5-0.6,0.5c-3.3,0-6.7-0.1-10.8-0.1c-0.2,0-0.3-0.1-0.3-0.2c0-0.1,0.1-0.2,0.3-0.6
			c2.8-4.4,5.8-8.9,8.5-13.2h-3.9c-1,0-2.2,0.1-2.9,0.4c-0.7,0.4-1,1.1-1.1,1.6c0,0.3-0.1,0.4-0.2,0.4c-0.1,0-0.2-0.1-0.2-0.3
			c0-0.5,0.3-2.3,0.4-2.9c0-0.3,0.1-0.4,0.2-0.4c0.2,0,0.3,0.1,0.8,0.1c1.9,0.1,2.9,0.1,3.7,0.1h6.1c0.2,0,0.3,0.1,0.3,0.2
			c0,0.1-0.1,0.2-0.2,0.4c-2.8,4.5-5.8,9.1-8.6,13.4L204.1,22.2L204.1,22.2z"/>
		<path class="st0" d="M212.3,14c0-3,0-3.6,0-4.3c0-0.7-0.2-1-0.7-1.1c-0.2-0.1-0.5-0.1-0.7-0.1c-0.2,0-0.3,0-0.3-0.2
			c0-0.1,0.2-0.2,0.5-0.2c0.8,0,2,0.1,2.6,0.1c0.5,0,1.7-0.1,2.4-0.1c0.3,0,0.4,0,0.4,0.2c0,0.2-0.1,0.2-0.3,0.2
			c-0.2,0-0.4,0-0.6,0.1c-0.5,0.1-0.7,0.4-0.7,1.1c0,0.6,0,1.2,0,4.3v3.5c0,1.9,0,3.5,0.1,4.4c0.1,0.5,0.2,0.9,0.8,1
			c0.3,0,0.7,0.1,1,0.1c0.2,0,0.3,0.1,0.3,0.2c0,0.1-0.2,0.2-0.4,0.2c-1.3,0-2.6-0.1-3.1-0.1c-0.5,0-1.7,0.1-2.5,0.1
			c-0.3,0-0.4-0.1-0.4-0.2c0-0.1,0.1-0.2,0.3-0.2c0.3,0,0.5,0,0.7-0.1c0.4-0.1,0.5-0.4,0.6-1c0.1-0.8,0.1-2.4,0.1-4.4L212.3,14
			L212.3,14z"/>
		<path class="st0" d="M224,9.3l-3,0.1c-1.2,0-1.6,0.1-1.9,0.6c-0.2,0.3-0.3,0.5-0.3,0.7c0,0.2-0.1,0.2-0.2,0.2
			c-0.1,0-0.2-0.1-0.2-0.3c0-0.3,0.4-2.1,0.4-2.3c0.1-0.3,0.1-0.4,0.2-0.4c0.2,0,0.4,0.2,0.9,0.2c0.6,0.1,1.3,0.1,2,0.1h7.9
			c0.6,0,1.1-0.1,1.4-0.1c0.3-0.1,0.5-0.1,0.5-0.1c0.1,0,0.2,0.1,0.2,0.4c0,0.4-0.1,1.8-0.1,2.3c0,0.2-0.1,0.3-0.2,0.3
			c-0.2,0-0.2-0.1-0.2-0.4l0-0.2c0-0.5-0.6-1.1-2.4-1.1l-2.5-0.1v8.2c0,1.8,0,3.4,0.1,4.3c0.1,0.6,0.2,1,0.8,1.1
			c0.3,0,0.7,0.1,1,0.1c0.2,0,0.3,0.1,0.3,0.2c0,0.1-0.2,0.2-0.4,0.2c-1.3,0-2.6-0.1-3.1-0.1c-0.5,0-1.7,0.1-2.5,0.1
			c-0.3,0-0.4-0.1-0.4-0.2c0-0.1,0.1-0.2,0.3-0.2c0.3,0,0.5,0,0.7-0.1c0.4-0.1,0.5-0.5,0.6-1.1c0.1-0.8,0.1-2.4,0.1-4.3L224,9.3
			L224,9.3L224,9.3z"/>
		<path class="st0" d="M235.6,14c0-3,0-3.6,0-4.3c0-0.7-0.2-1-0.9-1.1c-0.2,0-0.5-0.1-0.8-0.1c-0.2,0-0.3,0-0.3-0.2
			c0-0.1,0.1-0.2,0.4-0.2c0.5,0,1.1,0,1.6,0c0.5,0,1,0,1.3,0c0.6,0,4.6,0,5,0c0.4,0,0.7-0.1,0.9-0.1c0.1,0,0.2-0.1,0.3-0.1
			c0.1,0,0.1,0.1,0.1,0.2c0,0.1-0.1,0.4-0.2,1.3c0,0.2-0.1,1.1-0.1,1.3c0,0.1-0.1,0.2-0.2,0.2c-0.1,0-0.2-0.1-0.2-0.3
			c0-0.1,0-0.5-0.1-0.7c-0.1-0.4-0.3-0.6-1.3-0.7c-0.3,0-2.5-0.1-2.8-0.1c-0.1,0-0.1,0.1-0.1,0.2v5.1c0,0.1,0,0.2,0.1,0.2
			c0.4,0,2.7,0,3.2,0c0.5,0,0.8-0.1,1-0.3c0.1-0.2,0.2-0.3,0.3-0.3c0.1,0,0.1,0,0.1,0.2c0,0.1-0.1,0.4-0.2,1.5
			c0,0.4-0.1,1.2-0.1,1.3c0,0.2,0,0.4-0.2,0.4c-0.1,0-0.2-0.1-0.2-0.2c0-0.2,0-0.5-0.1-0.7c-0.1-0.4-0.4-0.7-1.1-0.8
			c-0.4,0-2.4-0.1-2.9-0.1c-0.1,0-0.1,0.1-0.1,0.2v1.6c0,0.7,0,2.5,0,3.1c0,1.4,0.4,1.7,2.4,1.7c0.5,0,1.4,0,1.9-0.2
			c0.5-0.2,0.8-0.7,0.9-1.5c0-0.2,0.1-0.3,0.2-0.3c0.2,0,0.2,0.2,0.2,0.4c0,0.5-0.2,1.8-0.3,2.2c-0.1,0.5-0.3,0.5-1.1,0.5
			c-1.5,0-2.6,0-3.5-0.1c-0.9,0-1.5-0.1-2.1-0.1c-0.2,0-0.7,0-1.1,0c-0.5,0-1,0-1.4,0c-0.3,0-0.4-0.1-0.4-0.2c0-0.1,0.1-0.2,0.3-0.2
			c0.3,0,0.5,0,0.7-0.1c0.4-0.1,0.5-0.5,0.6-1.1c0.1-0.8,0.1-2.4,0.1-4.3V14L235.6,14z"/>
		<path class="st0" d="M251,9.3l-3,0.1c-1.2,0-1.6,0.1-1.9,0.6c-0.2,0.3-0.3,0.5-0.3,0.7c0,0.2-0.1,0.2-0.2,0.2
			c-0.1,0-0.2-0.1-0.2-0.3c0-0.3,0.4-2.1,0.4-2.3c0.1-0.3,0.1-0.4,0.2-0.4c0.2,0,0.4,0.2,0.9,0.2c0.6,0.1,1.3,0.1,2,0.1h7.9
			c0.6,0,1.1-0.1,1.4-0.1c0.3-0.1,0.5-0.1,0.5-0.1c0.1,0,0.2,0.1,0.2,0.4c0,0.4-0.1,1.8-0.1,2.3c0,0.2-0.1,0.3-0.2,0.3
			c-0.2,0-0.2-0.1-0.2-0.4l0-0.2c0-0.5-0.6-1.1-2.4-1.1l-2.5-0.1v8.2c0,1.8,0,3.4,0.1,4.3c0.1,0.6,0.2,1,0.8,1.1
			c0.3,0,0.7,0.1,1,0.1c0.2,0,0.3,0.1,0.3,0.2c0,0.1-0.2,0.2-0.4,0.2c-1.3,0-2.6-0.1-3.1-0.1c-0.5,0-1.7,0.1-2.5,0.1
			c-0.3,0-0.4-0.1-0.4-0.2c0-0.1,0.1-0.2,0.3-0.2c0.3,0,0.5,0,0.7-0.1c0.4-0.1,0.5-0.5,0.6-1.1c0.1-0.8,0.1-2.4,0.1-4.3L251,9.3
			L251,9.3L251,9.3z"/>
		<path class="st0" d="M111.2,32.3c0.1-0.3,0.2-0.5,0.3-0.5c0.2,0,0.3,0.1,0.5,0.6l5.5,11.3l5.5-11.4c0.2-0.3,0.3-0.5,0.4-0.5
			c0.2,0,0.3,0.2,0.4,0.6l1.8,12.4c0.2,1.3,0.4,1.8,1,2c0.6,0.2,1,0.2,1.2,0.2c0.2,0,0.3,0,0.3,0.1c0,0.2-0.2,0.2-0.5,0.2
			c-0.5,0-3.3-0.1-4.1-0.1c-0.5,0-0.6-0.1-0.6-0.2c0-0.1,0.1-0.2,0.2-0.2c0.1,0,0.2-0.3,0.1-0.9l-1.2-8.8h-0.1l-4.4,9.1
			c-0.5,0.9-0.6,1.1-0.7,1.1c-0.2,0-0.4-0.4-0.7-1c-0.5-0.9-2.1-4-2.3-4.6c-0.2-0.4-1.4-2.9-2.1-4.5h-0.1l-1,8
			c0,0.4-0.1,0.6-0.1,0.9c0,0.4,0.3,0.6,0.6,0.6c0.4,0.1,0.6,0.1,0.8,0.1c0.2,0,0.3,0,0.3,0.1c0,0.2-0.2,0.2-0.5,0.2
			c-0.8,0-1.7-0.1-2.1-0.1c-0.4,0-1.3,0.1-2,0.1c-0.2,0-0.4,0-0.4-0.2c0-0.1,0.1-0.1,0.3-0.1c0.2,0,0.3,0,0.6-0.1
			c0.6-0.1,0.7-0.9,0.8-1.6L111.2,32.3z"/>
		<path class="st0" d="M131.4,38.1c0-3.1,0-3.6,0-4.3c0-0.7-0.2-1-0.9-1.1c-0.2,0-0.5-0.1-0.8-0.1c-0.2,0-0.3,0-0.3-0.2
			c0-0.1,0.1-0.2,0.4-0.2c0.5,0,1.1,0,1.6,0c0.5,0,1,0,1.3,0c0.6,0,4.6,0,5,0c0.4,0,0.7-0.1,0.9-0.1c0.1,0,0.2-0.1,0.3-0.1
			c0.1,0,0.1,0.1,0.1,0.2c0,0.1-0.1,0.4-0.2,1.3c0,0.2-0.1,1.1-0.1,1.3c0,0.1-0.1,0.2-0.2,0.2c-0.1,0-0.2-0.1-0.2-0.3
			c0-0.1,0-0.5-0.1-0.7c-0.1-0.4-0.3-0.6-1.3-0.7c-0.3,0-2.4-0.1-2.8-0.1c-0.1,0-0.1,0.1-0.1,0.2v5.1c0,0.1,0,0.2,0.1,0.2
			c0.4,0,2.8,0,3.2,0c0.5,0,0.8-0.1,1-0.3c0.1-0.2,0.2-0.3,0.3-0.3c0.1,0,0.1,0,0.1,0.2s-0.1,0.4-0.2,1.5c0,0.4-0.1,1.2-0.1,1.3
			c0,0.2,0,0.4-0.2,0.4c-0.1,0-0.2-0.1-0.2-0.2c0-0.2,0-0.5-0.1-0.7c-0.1-0.4-0.4-0.7-1.1-0.8c-0.4,0-2.4-0.1-2.9-0.1
			c-0.1,0-0.1,0.1-0.1,0.2v1.6c0,0.7,0,2.5,0,3.1c0,1.4,0.4,1.7,2.4,1.7c0.5,0,1.4,0,1.9-0.2c0.5-0.2,0.8-0.7,0.9-1.5
			c0-0.2,0.1-0.3,0.2-0.3c0.2,0,0.2,0.2,0.2,0.4c0,0.5-0.2,1.8-0.3,2.2c-0.1,0.5-0.3,0.5-1.1,0.5c-1.5,0-2.6,0-3.5-0.1
			c-0.9,0-1.5-0.1-2.1-0.1c-0.2,0-0.7,0-1.1,0c-0.5,0-1,0-1.4,0c-0.3,0-0.4-0.1-0.4-0.2c0-0.1,0.1-0.2,0.3-0.2c0.3,0,0.5,0,0.7-0.1
			c0.4-0.1,0.5-0.5,0.6-1.1c0.1-0.8,0.1-2.4,0.1-4.3L131.4,38.1L131.4,38.1L131.4,38.1z"/>
		<path class="st0" d="M146.8,33.4l-3,0.1c-1.2,0-1.6,0.1-1.9,0.6c-0.2,0.3-0.3,0.5-0.3,0.7c0,0.2-0.1,0.2-0.2,0.2
			c-0.1,0-0.2-0.1-0.2-0.3c0-0.3,0.4-2.1,0.4-2.3c0.1-0.3,0.1-0.4,0.2-0.4c0.2,0,0.4,0.2,0.9,0.2c0.6,0.1,1.3,0.1,2,0.1h8
			c0.6,0,1.1-0.1,1.4-0.1c0.3-0.1,0.5-0.1,0.5-0.1c0.1,0,0.2,0.1,0.2,0.4c0,0.4-0.1,1.8-0.1,2.3c0,0.2-0.1,0.3-0.2,0.3
			c-0.2,0-0.2-0.1-0.2-0.4l0-0.2c0-0.5-0.6-1.1-2.4-1.1l-2.5-0.1v8.2c0,1.8,0,3.4,0.1,4.3c0.1,0.6,0.2,1,0.8,1.1
			c0.3,0,0.7,0.1,1,0.1c0.2,0,0.3,0.1,0.3,0.2c0,0.1-0.2,0.2-0.4,0.2c-1.3,0-2.6-0.1-3.2-0.1c-0.5,0-1.7,0.1-2.5,0.1
			c-0.3,0-0.4-0.1-0.4-0.2c0-0.1,0.1-0.2,0.3-0.2c0.3,0,0.5,0,0.7-0.1c0.4-0.1,0.5-0.5,0.6-1.1c0.1-0.8,0.1-2.4,0.1-4.3L146.8,33.4
			L146.8,33.4z"/>
		<path class="st0" d="M158.4,38.1c0-3.1,0-3.6,0-4.3c0-0.7-0.2-1-0.9-1.1c-0.2,0-0.5-0.1-0.8-0.1c-0.2,0-0.3,0-0.3-0.2
			c0-0.1,0.1-0.2,0.4-0.2c1.1,0,2.3,0.1,2.7,0.1c0.7,0,2.2-0.1,2.8-0.1c1.3,0,2.6,0.1,3.7,0.9c0.6,0.4,1.4,1.4,1.4,2.7
			c0,1.5-0.6,2.8-2.6,4.5c1.8,2.3,3.2,4,4.4,5.3c1.1,1.2,1.9,1.3,2.2,1.4c0.2,0,0.4,0.1,0.6,0.1c0.2,0,0.2,0.1,0.2,0.2
			c0,0.2-0.1,0.2-0.4,0.2h-1.9c-1.1,0-1.6-0.1-2.1-0.4c-0.9-0.5-1.6-1.4-2.8-3c-0.8-1.1-1.7-2.5-2-2.8c-0.1-0.1-0.2-0.1-0.4-0.1
			l-1.7,0c-0.1,0-0.2,0-0.2,0.2v0.3c0,1.9,0,3.4,0.1,4.3c0.1,0.6,0.2,1,0.8,1.1c0.3,0,0.7,0.1,1,0.1c0.2,0,0.2,0.1,0.2,0.2
			c0,0.1-0.1,0.2-0.4,0.2c-1.2,0-2.7-0.1-3-0.1c-0.4,0-1.6,0.1-2.4,0.1c-0.3,0-0.4-0.1-0.4-0.2c0-0.1,0.1-0.2,0.3-0.2
			c0.3,0,0.5,0,0.7-0.1c0.4-0.1,0.5-0.5,0.6-1.1c0.1-0.8,0.1-2.4,0.1-4.3L158.4,38.1L158.4,38.1L158.4,38.1z M160.7,39.6
			c0,0.2,0,0.3,0.2,0.4c0.4,0.1,1,0.2,1.5,0.2c0.8,0,1.1-0.1,1.4-0.3c0.6-0.4,1.2-1.4,1.2-3c0-2.8-1.9-3.7-3.1-3.7
			c-0.5,0-0.9,0-1.1,0.1c-0.1,0-0.2,0.1-0.2,0.3L160.7,39.6L160.7,39.6z"/>
		<path class="st0" d="M171.2,39.8c0-3.4,2.3-7.9,8.3-7.9c5,0,8.1,2.9,8.1,7.5c0,4.6-3.2,8.2-8.3,8.2
			C173.6,47.7,171.2,43.4,171.2,39.8z M184.8,40.2c0-4.5-2.6-7.3-5.9-7.3c-2.3,0-4.9,1.3-4.9,6.3c0,4.2,2.3,7.5,6.2,7.5
			C181.6,46.7,184.8,46,184.8,40.2z"/>
		<path class="st0" d="M191.8,38.1c0-3.1,0-3.6,0-4.3c0-0.7-0.2-1-0.9-1.1c-0.2,0-0.5-0.1-0.8-0.1c-0.2,0-0.3,0-0.3-0.2
			c0-0.1,0.1-0.2,0.4-0.2c1.1,0,2.3,0.1,2.9,0.1c0.8,0,2-0.1,2.9-0.1c2.5,0,3.4,0.8,3.7,1.1c0.4,0.4,1,1.3,1,2.4
			c0,2.8-2.1,4.9-4.9,4.9c-0.1,0-0.3,0-0.4,0c-0.1,0-0.2,0-0.2-0.2c0-0.2,0.1-0.2,0.6-0.2c1.1,0,2.7-1.3,2.7-3.3c0-0.7-0.1-2-1.2-3
			c-0.7-0.7-1.5-0.8-2-0.8c-0.3,0-0.6,0-0.8,0.1c-0.1,0-0.2,0.2-0.2,0.4v8c0,1.8,0,3.4,0.1,4.3c0.1,0.6,0.2,1,0.8,1.1
			c0.3,0,0.7,0.1,1,0.1c0.2,0,0.3,0.1,0.3,0.2c0,0.1-0.2,0.2-0.4,0.2c-1.3,0-2.6-0.1-3.1-0.1c-0.5,0-1.7,0.1-2.5,0.1
			c-0.3,0-0.4-0.1-0.4-0.2c0-0.1,0.1-0.2,0.3-0.2c0.3,0,0.5,0,0.7-0.1c0.4-0.1,0.5-0.5,0.6-1.1c0.1-0.8,0.1-2.4,0.1-4.3L191.8,38.1
			L191.8,38.1L191.8,38.1z"/>
		<path class="st0" d="M202.8,39.8c0-3.4,2.3-7.9,8.3-7.9c5,0,8.1,2.9,8.1,7.5c0,4.6-3.2,8.2-8.3,8.2
			C205.1,47.7,202.8,43.4,202.8,39.8z M216.4,40.2c0-4.5-2.6-7.3-5.9-7.3c-2.3,0-4.9,1.3-4.9,6.3c0,4.2,2.3,7.5,6.2,7.5
			C213.1,46.7,216.4,46,216.4,40.2z"/>
		<path class="st0" d="M225.9,41.6c0,2.6,0,4,0.4,4.3c0.3,0.3,0.9,0.4,2.4,0.4c1.1,0,1.8,0,2.3-0.6c0.2-0.3,0.5-0.8,0.5-1.2
			c0-0.2,0.1-0.3,0.2-0.3c0.1,0,0.2,0.1,0.2,0.3c0,0.2-0.1,1.7-0.3,2.3c-0.1,0.4-0.2,0.5-1.3,0.5c-1.4,0-2.5,0-3.4-0.1
			c-0.9,0-1.6-0.1-2.5-0.1c-0.2,0-0.7,0-1.1,0c-0.5,0-1,0-1.4,0c-0.3,0-0.4-0.1-0.4-0.2c0-0.1,0.1-0.2,0.3-0.2c0.3,0,0.5,0,0.7-0.1
			c0.4-0.1,0.5-0.5,0.6-1.1c0.1-0.8,0.1-2.4,0.1-4.3v-3.5c0-3.1,0-3.6,0-4.3c0-0.7-0.2-1-0.9-1.1c-0.2,0-0.4-0.1-0.7-0.1
			c-0.2,0-0.3,0-0.3-0.2c0-0.1,0.1-0.2,0.4-0.2c0.9,0,2.2,0.1,2.8,0.1c0.5,0,1.9-0.1,2.7-0.1c0.3,0,0.4,0,0.4,0.2
			c0,0.1-0.1,0.2-0.4,0.2c-0.2,0-0.5,0-0.8,0.1c-0.5,0.1-0.7,0.4-0.7,1.1c0,0.6,0,1.2,0,4.3V41.6L225.9,41.6z"/>
		<path class="st0" d="M235.5,38.1c0-3.1,0-3.6,0-4.3c0-0.7-0.2-1-0.7-1.1c-0.2-0.1-0.5-0.1-0.7-0.1c-0.2,0-0.3,0-0.3-0.2
			c0-0.1,0.2-0.2,0.5-0.2c0.8,0,2,0.1,2.6,0.1c0.5,0,1.7-0.1,2.4-0.1c0.3,0,0.4,0,0.4,0.2c0,0.2-0.1,0.2-0.3,0.2
			c-0.2,0-0.4,0-0.6,0.1c-0.5,0.1-0.7,0.4-0.7,1.1c0,0.6,0,1.2,0,4.3v3.5c0,1.9,0,3.5,0.1,4.4c0.1,0.5,0.2,0.9,0.8,1
			c0.3,0,0.7,0.1,1,0.1c0.2,0,0.3,0.1,0.3,0.2c0,0.1-0.2,0.2-0.4,0.2c-1.3,0-2.6-0.1-3.1-0.1c-0.5,0-1.7,0.1-2.5,0.1
			c-0.3,0-0.4-0.1-0.4-0.2c0-0.1,0.1-0.2,0.3-0.2c0.3,0,0.5,0,0.7-0.1c0.4-0.1,0.5-0.4,0.6-1c0.1-0.8,0.1-2.4,0.1-4.4L235.5,38.1
			L235.5,38.1z"/>
		<path class="st0" d="M247.3,33.4l-3,0.1c-1.2,0-1.6,0.1-1.9,0.6c-0.2,0.3-0.3,0.5-0.3,0.7c0,0.2-0.1,0.2-0.2,0.2
			c-0.1,0-0.2-0.1-0.2-0.3c0-0.3,0.4-2.1,0.4-2.3c0.1-0.3,0.1-0.4,0.2-0.4c0.2,0,0.4,0.2,0.9,0.2c0.6,0.1,1.3,0.1,2,0.1h7.9
			c0.6,0,1.1-0.1,1.4-0.1c0.3-0.1,0.5-0.1,0.5-0.1c0.1,0,0.2,0.1,0.2,0.4c0,0.4-0.1,1.8-0.1,2.3c0,0.2-0.1,0.3-0.2,0.3
			c-0.2,0-0.2-0.1-0.2-0.4l0-0.2c0-0.5-0.6-1.1-2.4-1.1l-2.5-0.1v8.2c0,1.8,0,3.4,0.1,4.3c0.1,0.6,0.2,1,0.8,1.1
			c0.3,0,0.7,0.1,1,0.1c0.2,0,0.3,0.1,0.3,0.2c0,0.1-0.2,0.2-0.4,0.2c-1.3,0-2.6-0.1-3.2-0.1c-0.5,0-1.7,0.1-2.5,0.1
			c-0.3,0-0.4-0.1-0.4-0.2c0-0.1,0.1-0.2,0.3-0.2c0.3,0,0.5,0,0.7-0.1c0.4-0.1,0.5-0.5,0.6-1.1c0.1-0.8,0.1-2.4,0.1-4.3L247.3,33.4
			L247.3,33.4L247.3,33.4z"/>
		<path class="st0" d="M258.4,42.2c-0.1,0-0.1,0-0.2,0.2l-1.1,2.9c-0.2,0.5-0.3,1-0.3,1.2c0,0.4,0.2,0.6,0.8,0.6h0.3
			c0.2,0,0.3,0,0.3,0.2c0,0.2-0.1,0.2-0.3,0.2c-0.6,0-1.5-0.1-2.1-0.1c-0.2,0-1.3,0.1-2.4,0.1c-0.3,0-0.4,0-0.4-0.2
			c0-0.1,0.1-0.2,0.2-0.2c0.2,0,0.5,0,0.6,0c0.9-0.1,1.3-0.8,1.7-1.8l5-12.6c0.2-0.6,0.4-0.8,0.6-0.8c0.2,0,0.3,0.2,0.5,0.6
			c0.5,1.1,3.7,9.3,5,12.3c0.8,1.8,1.3,2.1,1.8,2.2c0.3,0.1,0.6,0.1,0.8,0.1c0.2,0,0.3,0,0.3,0.2c0,0.2-0.2,0.2-0.9,0.2
			c-0.7,0-2.2,0-3.8,0c-0.4,0-0.6,0-0.6-0.2c0-0.1,0.1-0.2,0.3-0.2c0.1,0,0.3-0.2,0.2-0.5l-1.6-4.3c0-0.1-0.1-0.1-0.2-0.1
			L258.4,42.2L258.4,42.2z M262.5,41.2c0.1,0,0.1-0.1,0.1-0.1l-1.8-5c0-0.1,0-0.2-0.1-0.2c-0.1,0-0.1,0.1-0.1,0.2l-1.8,4.9
			c0,0.1,0,0.1,0.1,0.1L262.5,41.2L262.5,41.2z"/>
		<path class="st0" d="M272.8,44.7c0,1.6,0.3,2.1,0.7,2.2c0.3,0.1,0.7,0.1,1,0.1c0.2,0,0.3,0,0.3,0.2c0,0.2-0.2,0.2-0.5,0.2
			c-1.3,0-2.1-0.1-2.5-0.1c-0.2,0-1.1,0.1-2.2,0.1c-0.3,0-0.4,0-0.4-0.2c0-0.1,0.1-0.2,0.3-0.2c0.3,0,0.6,0,0.9-0.1
			c0.5-0.2,0.6-0.7,0.6-2.5l0.2-11.9c0-0.4,0.1-0.7,0.3-0.7c0.2,0,0.4,0.3,0.7,0.6c0.2,0.3,3.3,3.5,6.2,6.4c1.4,1.4,4.1,4.2,4.4,4.6
			h0.1l-0.2-9c0-1.2-0.2-1.6-0.7-1.8c-0.3-0.1-0.8-0.1-1.1-0.1c-0.2,0-0.3-0.1-0.3-0.2c0-0.2,0.2-0.2,0.5-0.2c1,0,2,0.1,2.4,0.1
			c0.2,0,1-0.1,2-0.1c0.3,0,0.5,0,0.5,0.2c0,0.1-0.1,0.2-0.4,0.2c-0.2,0-0.4,0-0.6,0.1c-0.6,0.2-0.7,0.6-0.7,1.7L284.3,47
			c0,0.4-0.1,0.6-0.3,0.6c-0.2,0-0.5-0.2-0.7-0.4c-1.3-1.2-3.8-3.8-5.9-5.9c-2.2-2.2-4.4-4.7-4.8-5.1h-0.1L272.8,44.7z"/>
		<path class="st0" d="M108.7,60.3c0-1.8,0-2.2,0-2.6c0-0.4-0.1-0.6-0.5-0.7c-0.1,0-0.3,0-0.5,0c-0.1,0-0.2,0-0.2-0.1
			c0-0.1,0.1-0.1,0.3-0.1c0.6,0,1.4,0,1.6,0c0.6,0,1.1,0,1.5,0c2.2,0,2.6,1.2,2.6,1.8c0,1-0.6,1.6-1.2,2.1c1,0.3,2.2,1.2,2.2,2.6
			c0,1.3-1,2.6-3.2,2.6c-0.1,0-0.5,0-0.8,0c-0.4,0-0.7,0-0.9,0c-0.1,0-0.4,0-0.7,0c-0.3,0-0.6,0-0.8,0c-0.2,0-0.2,0-0.2-0.1
			c0-0.1,0.1-0.1,0.2-0.1c0.2,0,0.3,0,0.4-0.1c0.2,0,0.3-0.3,0.3-0.7c0.1-0.5,0.1-1.5,0.1-2.6L108.7,60.3L108.7,60.3z M110.1,60.5
			c0,0.1,0,0.1,0.1,0.1c0.1,0,0.3,0,0.6,0c0.4,0,0.7-0.1,0.9-0.2c0.3-0.3,0.5-0.7,0.5-1.3c0-0.8-0.5-1.9-1.5-1.9c-0.2,0-0.3,0-0.4,0
			c-0.1,0-0.1,0.1-0.1,0.2L110.1,60.5L110.1,60.5z M111.7,61.5c-0.3-0.2-0.5-0.3-1-0.3c-0.2,0-0.3,0-0.5,0c0,0-0.1,0-0.1,0.1v2.9
			c0,0.8,0,1,0.4,1.2c0.3,0.1,0.6,0.1,0.9,0.1c0.5,0,1.5-0.3,1.5-1.5C112.9,63.1,112.6,62.1,111.7,61.5z"/>
		<path class="st0" d="M117,60.3c0-1.8,0-2.2,0-2.6c0-0.4-0.1-0.6-0.5-0.7c-0.1,0-0.3,0-0.5,0c-0.1,0-0.2,0-0.2-0.1
			c0-0.1,0.1-0.1,0.3-0.1c0.3,0,0.7,0,1,0c0.3,0,0.6,0,0.8,0c0.4,0,2.8,0,3,0c0.2,0,0.4,0,0.5-0.1c0.1,0,0.1-0.1,0.2-0.1
			s0.1,0.1,0.1,0.1c0,0.1-0.1,0.2-0.1,0.8c0,0.1,0,0.7-0.1,0.8c0,0.1,0,0.1-0.1,0.1c-0.1,0-0.1-0.1-0.1-0.2c0-0.1,0-0.3-0.1-0.4
			c-0.1-0.2-0.2-0.4-0.8-0.4c-0.2,0-1.5-0.1-1.7-0.1c-0.1,0-0.1,0-0.1,0.1v3.1c0,0.1,0,0.1,0.1,0.1c0.3,0,1.7,0,1.9,0
			c0.3,0,0.5-0.1,0.6-0.2c0.1-0.1,0.1-0.2,0.2-0.2c0,0,0.1,0,0.1,0.1c0,0.1-0.1,0.3-0.1,0.9c0,0.2,0,0.7,0,0.8c0,0.1,0,0.2-0.1,0.2
			c-0.1,0-0.1,0-0.1-0.1c0-0.1,0-0.3-0.1-0.4c-0.1-0.2-0.2-0.4-0.7-0.5c-0.2,0-1.4,0-1.7,0c-0.1,0-0.1,0-0.1,0.1v1
			c0,0.4,0,1.5,0,1.9c0,0.8,0.2,1,1.5,1c0.3,0,0.8,0,1.1-0.1c0.3-0.1,0.5-0.4,0.5-0.9c0-0.1,0-0.2,0.1-0.2c0.1,0,0.1,0.1,0.1,0.2
			c0,0.3-0.1,1.1-0.2,1.3c-0.1,0.3-0.2,0.3-0.7,0.3c-0.9,0-1.6,0-2.1,0c-0.5,0-0.9,0-1.3,0c-0.1,0-0.4,0-0.7,0c-0.3,0-0.6,0-0.8,0
			c-0.2,0-0.2,0-0.2-0.1c0-0.1,0.1-0.1,0.2-0.1c0.2,0,0.3,0,0.4-0.1c0.2,0,0.3-0.3,0.3-0.7c0.1-0.5,0.1-1.5,0.1-2.6L117,60.3
			L117,60.3z"/>
		<path class="st0" d="M123.3,61.4c0-2.1,1.4-4.7,5-4.7c3,0,4.9,1.8,4.9,4.5c0,2.8-1.9,5-5,5C124.7,66.1,123.3,63.5,123.3,61.4z
			 M131.5,61.6c0-2.7-1.6-4.4-3.5-4.4c-1.4,0-3,0.8-3,3.8c0,2.5,1.4,4.5,3.7,4.5C129.5,65.5,131.5,65.1,131.5,61.6z"/>
		<path class="st0" d="M143.1,65.1c0,0.3,0,0.4-0.2,0.4c-0.8,0.4-2,0.5-2.9,0.5c-3,0-5.6-1.4-5.6-4.7c0-1.9,1-3.3,2.1-4
			c1.2-0.7,2.2-0.8,3.2-0.8c0.8,0,1.9,0.1,2.1,0.2c0.3,0,0.7,0.1,1,0.1c0.1,0,0.2,0.1,0.2,0.1c0,0.1-0.1,0.5-0.1,2
			c0,0.2,0,0.3-0.1,0.3c-0.1,0-0.1-0.1-0.1-0.2c0-0.3-0.1-0.7-0.4-1c-0.4-0.4-1.3-0.9-2.7-0.9c-0.7,0-1.5,0-2.4,0.7
			c-0.7,0.6-1.1,1.5-1.1,3c0,2.6,1.7,4.5,4.2,4.5c0.3,0,0.7,0,1-0.1c0.2-0.1,0.2-0.2,0.2-0.4v-1.1c0-0.6,0-1.1,0-1.4
			c0-0.4-0.1-0.6-0.5-0.7c-0.1,0-0.3,0-0.5,0c-0.1,0-0.2,0-0.2-0.1c0-0.1,0.1-0.1,0.3-0.1c0.6,0,1.4,0,1.7,0c0.4,0,1,0,1.4,0
			c0.2,0,0.2,0,0.2,0.1c0,0.1-0.1,0.1-0.2,0.1c-0.1,0-0.2,0-0.3,0c-0.3,0.1-0.4,0.3-0.5,0.7c0,0.4,0,0.8,0,1.4L143.1,65.1
			L143.1,65.1L143.1,65.1z"/>
		<path class="st0" d="M146.5,60.3c0-1.8,0-2.2,0-2.6c0-0.4-0.1-0.6-0.5-0.7c-0.1,0-0.3,0-0.5,0c-0.1,0-0.2,0-0.2-0.1
			c0-0.1,0.1-0.1,0.3-0.1c0.6,0,1.4,0,1.7,0c0.4,0,1.3,0,1.7,0c0.8,0,1.6,0.1,2.2,0.5c0.3,0.2,0.8,0.8,0.8,1.7
			c0,0.9-0.4,1.7-1.6,2.7c1.1,1.4,1.9,2.4,2.6,3.2c0.7,0.7,1.2,0.8,1.4,0.8c0.1,0,0.2,0,0.3,0c0.1,0,0.1,0,0.1,0.1
			c0,0.1-0.1,0.1-0.2,0.1h-1.2c-0.7,0-1-0.1-1.3-0.2c-0.5-0.3-1-0.8-1.7-1.8c-0.5-0.7-1-1.5-1.2-1.7c-0.1-0.1-0.1-0.1-0.2-0.1
			l-1.1,0c-0.1,0-0.1,0-0.1,0.1v0.2c0,1.1,0,2.1,0.1,2.6c0,0.4,0.1,0.6,0.5,0.7c0.2,0,0.5,0.1,0.6,0.1c0.1,0,0.1,0,0.1,0.1
			c0,0.1-0.1,0.1-0.2,0.1c-0.7,0-1.6,0-1.8,0c-0.2,0-1,0-1.5,0c-0.2,0-0.2,0-0.2-0.1c0-0.1,0-0.1,0.2-0.1c0.2,0,0.3,0,0.4-0.1
			c0.2,0,0.3-0.3,0.4-0.7c0.1-0.5,0.1-1.5,0.1-2.6L146.5,60.3L146.5,60.3z M147.9,61.3c0,0.1,0,0.2,0.1,0.2c0.3,0.1,0.6,0.1,0.9,0.1
			c0.5,0,0.6,0,0.9-0.2c0.4-0.3,0.7-0.8,0.7-1.8c0-1.7-1.1-2.2-1.9-2.2c-0.3,0-0.5,0-0.6,0c-0.1,0-0.1,0.1-0.1,0.2L147.9,61.3
			L147.9,61.3z"/>
		<path class="st0" d="M156.2,62.8c-0.1,0-0.1,0-0.1,0.1l-0.7,1.7c-0.1,0.3-0.2,0.6-0.2,0.7c0,0.2,0.1,0.4,0.5,0.4h0.2
			c0.1,0,0.2,0,0.2,0.1c0,0.1-0.1,0.1-0.2,0.1c-0.4,0-0.9,0-1.3,0c-0.1,0-0.8,0-1.4,0c-0.2,0-0.2,0-0.2-0.1c0-0.1,0.1-0.1,0.1-0.1
			c0.1,0,0.3,0,0.4,0c0.6-0.1,0.8-0.5,1-1.1l3-7.6c0.1-0.4,0.2-0.5,0.3-0.5c0.1,0,0.2,0.1,0.3,0.4c0.3,0.7,2.2,5.6,3,7.4
			c0.5,1.1,0.8,1.3,1.1,1.3c0.2,0,0.4,0.1,0.5,0.1c0.1,0,0.2,0,0.2,0.1c0,0.1-0.1,0.1-0.6,0.1c-0.4,0-1.3,0-2.3,0
			c-0.2,0-0.4,0-0.4-0.1c0-0.1,0.1-0.1,0.2-0.1c0.1,0,0.2-0.1,0.1-0.3l-1-2.6c0-0.1-0.1-0.1-0.1-0.1L156.2,62.8L156.2,62.8z
			 M158.6,62.2C158.7,62.2,158.7,62.1,158.6,62.2l-1-3.1c0,0,0-0.1-0.1-0.1c0,0-0.1,0.1-0.1,0.1l-1.1,3c0,0,0,0.1,0,0.1L158.6,62.2
			L158.6,62.2z"/>
		<path class="st0" d="M164.1,60.3c0-1.8,0-2.2,0-2.6c0-0.4-0.1-0.6-0.5-0.7c-0.1,0-0.3,0-0.5,0c-0.1,0-0.2,0-0.2-0.1
			c0-0.1,0.1-0.1,0.3-0.1c0.6,0,1.4,0,1.7,0c0.4,0,1.1,0,1.9,0c1.5,0,3.5,0,4.8,1.4c0.6,0.6,1.2,1.6,1.2,3.1c0,1.5-0.6,2.7-1.3,3.4
			c-0.6,0.6-1.8,1.4-4,1.4c-0.4,0-0.9,0-1.4-0.1c-0.5,0-0.9-0.1-1.2-0.1c-0.1,0-0.4,0-0.7,0c-0.3,0-0.6,0-0.8,0
			c-0.2,0-0.2,0-0.2-0.1c0-0.1,0-0.1,0.2-0.1c0.2,0,0.3,0,0.4-0.1c0.2,0,0.3-0.3,0.4-0.7c0.1-0.5,0.1-1.5,0.1-2.6L164.1,60.3
			L164.1,60.3z M165.6,61.6c0,1.3,0,2.2,0,2.4c0,0.3,0,0.8,0.1,0.9c0.2,0.2,0.6,0.5,1.6,0.5c1.2,0,2.1-0.2,2.8-0.9
			c0.8-0.7,1-1.8,1-3c0-1.5-0.6-2.5-1.2-3c-1.1-1.1-2.5-1.2-3.4-1.2c-0.2,0-0.7,0-0.8,0.1c-0.1,0.1-0.1,0.1-0.1,0.2
			c0,0.4,0,1.5,0,2.4L165.6,61.6L165.6,61.6z"/>
	</g>
</g>
</svg>
